<?xml version="1.0" encoding="iso-8859-1"?>
<!-- Generator: Adobe Illustrator 24.1.0, SVG Export Plug-In . SVG Version: 6.00 Build 0)  -->
<svg version="1.1" fill="white" xmlns="http://www.w3.org/2000/svg" xmlns:xlink="http://www.w3.org/1999/xlink" x="0px" y="0px"
	 viewBox="0 0 512 512" style="enable-background:new 0 0 512 512;" xml:space="preserve">
<g id="_x31_2_x2C__Chat_Popular_Social_Media_Logo">
	<g>
		<path d="M293.649,355.141c-67.594-18.442-120.369-71.276-138.787-138.778c-5.333-19.566,0.262-40.619,14.6-54.946l14.447-14.447
			c11.388-11.403,29.849-11.407,41.247,0.005l16.575,16.575c9.801,9.786,11.338,25.268,3.65,36.806l-11.562,17.338
			c13.527,24.627,33.84,44.949,58.487,58.487l17.335-11.56c0.001,0,0.002-0.001,0.003-0.002c11.539-7.687,27.021-6.149,36.811,3.656
			l16.575,16.574c11.404,11.39,11.405,29.851-0.005,41.247l-14.445,14.445C333.681,355.458,312.637,360.297,293.649,355.141z
			 M198.057,161.106l-14.455,14.455c-9.275,9.268-12.894,22.885-9.443,35.539c16.514,60.531,63.846,108.127,124.743,124.742
			c12.227,3.317,25.853,0.252,35.533-9.439l14.454-14.455c3.588-3.581,3.587-9.373,0.005-12.953l-16.585-16.584
			c-3.08-3.085-7.941-3.567-11.57-1.15l-22.271,14.85c-2.985,1.99-6.81,2.229-10.021,0.624
			c-32.011-16.007-58.657-42.137-75.182-75.182c-1.604-3.21-1.367-7.034,0.624-10.021l14.85-22.271
			c2.416-3.625,1.935-8.49-1.145-11.565l-16.586-16.585C207.4,157.499,201.607,157.55,198.057,161.106z"/>
		<path d="M266,431H91c-3.924,0-7.485-2.295-9.106-5.868s-1.003-7.764,1.581-10.717l42.043-48.049C96.742,332.837,81,290.445,81,246
			c0-102.01,82.99-185,185-185s185,82.99,185,185S368.01,431,266,431z M113.038,411H266c90.981,0,165-74.019,165-165
			S356.981,81,266,81s-165,74.019-165,165c0,42.359,16.035,82.631,45.152,113.396c3.547,3.747,3.66,9.576,0.263,13.459L113.038,411z
			"/>
		<path d="M429.74,511H82.26C37.453,511,1,474.547,1,429.74V82.26C1,37.453,37.453,1,82.26,1h347.48C474.547,1,511,37.453,511,82.26
			v347.48C511,474.547,474.547,511,429.74,511z M82.26,21C48.481,21,21,48.481,21,82.26v347.48C21,463.519,48.481,491,82.26,491
			h347.48c33.778,0,61.26-27.481,61.26-61.26V82.26C491,48.481,463.519,21,429.74,21H82.26z"/>
	</g>
</g>
<g id="Layer_1">
</g>
</svg>
